<?xml version="1.0" encoding="utf-8"?>
<!-- Generator: Adobe Illustrator 22.1.0, SVG Export Plug-In . SVG Version: 6.00 Build 0)  -->
<svg version="1.1" id="Layer_1" xmlns="http://www.w3.org/2000/svg" xmlns:xlink="http://www.w3.org/1999/xlink" x="0px" y="0px"
	 viewBox="0 0 1257 181" style="enable-background:new 0 0 1257 181;" xml:space="preserve">
<style type="text/css">
	.st0{fill:#6CC9D2;}
	.st1{fill:#D95A44;}
	.st2{fill:#6BCAD3;}
	.st3{fill:#AEAEAE;}
</style>
<path class="st0" d="M72.6,143c-0.2,7.2-1.7,13.8-4.4,19.3c-2.2,4.8-5.6,9.4-10.5,13c-4.9,3.9-11.5,6-20.3,6c-8.8,0-15.6-2.2-20.5-6
	c-4.9-3.6-8.1-8.2-10.3-13c-2.7-5.6-4.2-12.1-4.4-19.3V38.4c0.2-7,1.7-13.5,4.4-19.1C8.8,14.5,12,9.7,16.9,6s11.7-6,20.5-6
	c8.8,0,15.4,2.4,20.3,6c4.9,3.6,8.3,8.5,10.5,13.3c2.7,5.6,4.2,12.1,4.4,19.1V143z M46.2,38.4c0-4.8-1-8.2-3.4-11.1
	c-1.2-1.2-3.2-1.9-5.4-1.9c-4.6,0-6.8,3.4-7.8,6.5c-0.7,1.9-1,4.1-1,6.5V143c0,5.1,1.2,8.5,3.7,11.1c1.2,1.2,2.9,1.9,5.1,1.9
	c4.6,0,6.8-2.9,7.8-6.5c0.7-1.7,1-3.9,1-6.5V38.4z"/>
<path class="st0" d="M159.9,118.6V143c-0.2,7.2-1.7,13.8-4.4,19.3c-2.2,4.8-5.6,9.4-10.5,13c-4.9,3.9-11.5,6-20.3,6
	c-8.8,0-15.6-2.2-20.5-6c-4.9-3.6-8.1-8.2-10.3-13c-2.7-5.6-4.2-12.1-4.4-19.3V38.4c0.2-7,1.7-13.5,4.4-19.1
	c2.2-4.8,5.4-9.7,10.3-13.3s11.7-6,20.5-6c8.8,0,15.4,2.4,20.3,6c4.9,3.6,8.3,8.5,10.5,13.3c2.7,5.6,4.2,12.1,4.4,19.1v24.4h-24.7
	V38.4c0-4.8-1.2-8.2-3.9-11.1c-1.2-1.2-3.4-1.9-6.1-1.9c-4.6,0-6.8,3.4-8.1,6.5c-0.7,1.9-1,4.1-1.2,6.5V143
	c0.2,5.1,1.7,8.5,4.2,11.1c1.2,1.2,2.9,1.9,5.1,1.9c5.6,0,7.8-2.9,9-6.5c0.7-1.7,1-3.9,1-6.5v-24.4H159.9z"/>
<path class="st0" d="M246.6,1.9V143c-0.2,7.2-1.7,13.8-4.4,19.3c-2.2,4.8-5.6,9.4-10.5,13c-4.9,3.9-11.5,6-20.3,6s-15.6-2.2-20.5-6
	c-4.9-3.6-8.1-8.2-10.3-13c-2.7-5.6-4.2-12.1-4.4-19.3V1.9h26.4V143c0,5.1,1.2,8.5,3.7,11.1c1.2,1.2,2.9,1.9,5.1,1.9
	c4.6,0,6.8-2.9,7.8-6.5c0.7-1.7,1-3.9,1-6.5V1.9H246.6z"/>
<path class="st0" d="M266.7,1.9h26.4v153.4h35v24.2h-61.4V1.9z"/>
<path class="st0" d="M334.6,179.5L361.8,1.9H394l27.1,177.5h-25.7l-4.9-36.2h-25.4l-4.9,36.2H334.6z M379.4,59.7l-0.7-4.6h-1.5
	l-0.7,4.6l-7.6,56H387L379.4,59.7z"/>
<path class="st1" d="M767.3,179.5l-13.7-74.9h-7.1v74.9h-26.4V1.9h26.4c31.5,0,45,17.6,45,51.2c0,17.6-4.6,33.6-14.7,40.3l16.9,86
	H767.3z M746.5,80.4c3.7,0,8.6-0.5,12.5-3.9s7.1-9.9,7.1-22.5c0-12.6-3.2-19.3-7.1-22.7s-8.8-3.6-12.5-3.6V80.4z"/>
<path class="st1" d="M856,102.2h-20.5v77.3h-26.4V1.9h26.4v73.4H856V1.9h26.4v177.5H856V102.2z"/>
<path class="st1" d="M933.8,58.7l0.7,1.7h0.5l0.7-1.7l13.2-56.8h25.9l-26.9,101.9v75.6h-26.4v-75.6L894.6,1.9h25.9L933.8,58.7z"/>
<path class="st1" d="M977.8,28.7V1.9h76.3v26.8h-24.9v150.7h-26.4V28.7H977.8z"/>
<path class="st1" d="M1112,102.2h-20.5v77.3H1065V1.9h26.4v73.4h20.5V1.9h26.4v177.5H1112V102.2z"/>
<path class="st1" d="M1202.4,179.5l-16.9-111.6l-1-7.5h-1.5v119.1h-24.4V1.9h32.3l15.6,81.2l1.2,9.4h0.5l1.2-9.4l15.6-81.2h32.3
	v177.5H1233V60.4h-1.5l-1,7.5l-16.9,111.6H1202.4z"/>
<g>
	<g>
		<path class="st2" d="M573.8,130.6c-2.1-0.2-3.6-1.2-4.7-3.4c-0.1-1.6-0.3-3.7-0.3-5.9c0-18.1,0-36.2,0-54.2c0-4.7-0.3-9.4-0.3-14
			c0-5,1.7-6.5,7.6-6.4c5.4,0.1,10.7,0,16.2-0.1c7.9-0.4,15.3,1.1,22.1,4.7c7.3,3.7,11.2,9.2,13,15.9c0.6,2.1,0.8,4.3,0.9,5.8
			c-0.6,9-5.7,15.2-13.5,20.1c-1.4,0.9-2.6,1.7-3.9,2.7c-0.5,1-0.9,2-1.2,2.7c0.4,3,2,5,3.3,7.3c3.8,6,7.4,12.2,11,18.4
			c0.8,1.2,1.1,2.6,1.5,3.9c0.2,0.7-1.2,2.3-2.3,2.5c-1.4,0.1-2.7,0.2-3.9,0.2c-3.8,0.2-6.5-1-8.3-3.8c-4.4-7-8.9-14-13.3-21.1
			c-1.2-1.7-2.3-3.4-3.5-5.1c-0.9-1.2-2.3-2-3.9-2.5c-4.8-1.4-9.1,0.7-9.4,4.8c-0.1,3.3-0.1,6.5-0.1,9.9c-0.1,4.9-0.1,9.9-0.1,14.4
			C578.5,130.4,576.4,130.9,573.8,130.6z M580.6,70.8c0,2.5,0,4.9,0.1,7.4c0,1.6,0.1,3.3,0.5,4.8c0.3,1.7,1.7,3,3.6,3.7
			c2.3,0.7,4.5,1.2,6.8,1c3.6-0.4,7.3-0.9,10.9-1.4c1.1-0.1,2-0.5,2.9-0.9c9.4-3.8,12.4-11.6,8.9-19.3c-2.3-5.3-7.6-8.3-14.2-9.2
			c-4.5-0.7-9.4-0.6-14.1-0.1c-2.6,0.2-5,2.2-5.1,4.3c-0.1,3.2,0,6.5,0,9.7C580.8,70.8,580.8,70.8,580.6,70.8z"/>
	</g>
	<g>
		<path class="st1" d="M598.1,130.6c-2.1-0.2-3.6-1.2-4.7-3.4c-0.1-1.6-0.3-3.7-0.3-5.9c0-18.1,0-36.2,0-54.2c0-4.7-0.3-9.4-0.3-14
			c0-5,1.7-6.5,7.6-6.4c5.4,0.1,10.7,0,16.2-0.1c7.9-0.4,15.3,1.1,22.1,4.7c7.3,3.7,11.2,9.2,13,15.9c0.6,2.1,0.8,4.3,0.9,5.8
			c-0.6,9-5.7,15.2-13.5,20.1c-1.4,0.9-2.6,1.7-3.9,2.7c-0.5,1-0.9,2-1.2,2.7c0.4,3,2,5,3.3,7.3c3.8,6,7.4,12.2,11,18.4
			c0.8,1.2,1.1,2.6,1.5,3.9c0.2,0.7-1.2,2.3-2.3,2.5c-1.4,0.1-2.7,0.2-3.9,0.2c-3.8,0.2-6.5-1-8.3-3.8c-4.4-7-8.9-14-13.3-21.1
			c-1.2-1.7-2.3-3.4-3.5-5.1c-0.9-1.2-2.3-2-3.9-2.5c-4.8-1.4-9.1,0.7-9.4,4.8c-0.1,3.3-0.1,6.5-0.1,9.9c-0.1,4.9-0.1,9.9-0.1,14.4
			C602.8,130.4,600.7,130.9,598.1,130.6z M604.9,70.8c0,2.5,0,4.9,0.1,7.4c0,1.6,0.1,3.3,0.5,4.8c0.3,1.7,1.7,3,3.6,3.7
			c2.3,0.7,4.5,1.2,6.8,1c3.6-0.4,7.3-0.9,10.9-1.4c1.1-0.1,2-0.5,2.9-0.9c9.4-3.8,12.4-11.6,8.9-19.3c-2.3-5.3-7.6-8.3-14.2-9.2
			c-4.5-0.7-9.4-0.6-14.1-0.1c-2.6,0.2-5,2.2-5.1,4.3c-0.1,3.2,0,6.5,0,9.7C605,70.8,605,70.8,604.9,70.8z"/>
	</g>
</g>
<g>
	<path class="st3" d="M605.7,178.6c-52-0.5-87.3-42.4-87.9-87.9c-0.5-46.3,36.3-90.5,89.4-90c56.2,0.5,89.9,47.3,88.1,88.9
		C697.7,131,663.5,179.4,605.7,178.6z M572.7,30.9c-6.3,3.4-11,8.4-16,13.3c-17.3,17.5-24.8,47.3-11.5,74.3
		c3.9,8.4,9.7,15.7,16.7,21.7c18.6,15.7,39.2,22,63,14.9c24.1-7.1,40-22.8,47.1-46.8c6.8-21.7,1.8-52.8-22.7-71.9
		c-12.3-9.4-26.2-14.9-42.9-14.4C595,20.7,583.5,24.8,572.7,30.9z"/>
</g>
<path class="st0" d="M475.3,179.5l-13.7-74.9h-7.1v74.9h-26.4V1.9h26.4c31.5,0,45,17.6,45,51.2c0,17.6-4.6,33.6-14.7,40.3l16.9,86
	H475.3z M454.5,80.4c3.7,0,8.6-0.5,12.5-3.9s7.1-9.9,7.1-22.5c0-12.6-3.2-19.3-7.1-22.7s-8.8-3.6-12.5-3.6V80.4z"/>
</svg>
