<svg xmlns="http://www.w3.org/2000/svg" viewBox="0 0 321 321.99"><defs><style>.cls-1{fill:#aeaeae;}.cls-2{fill:#dee0df;}.cls-3{fill:#d95a44;}.cls-4{fill:none;stroke:#525252;stroke-miterlimit:10;stroke-width:4px;}.cls-5{fill:#6bcad3;}</style></defs><title>software</title><g id="Layer_2" data-name="Layer 2"><g id="software"><rect class="cls-1" x="256.01" y="33.95" width="55.15" height="32.03"/><path class="cls-2" d="M160.5,65.73a94.77,94.77,0,1,0,94.77,94.77H160.5Z"/><path class="cls-3" d="M160.5,65.73V160.5h94.77A94.77,94.77,0,0,0,160.5,65.73Z"/><rect class="cls-4" x="2" y="176.02" width="142.32" height="143.97"/><rect class="cls-4" x="2" y="176.02" width="142.32" height="16.18"/><rect class="cls-4" x="160.5" y="2" width="158.5" height="158.5"/><line class="cls-4" x1="17.85" y1="208.05" x2="41.29" y2="208.05"/><line class="cls-4" x1="55.49" y1="208.05" x2="86.53" y2="208.05"/><line class="cls-4" x1="98.09" y1="208.05" x2="115.26" y2="208.05"/><line class="cls-4" x1="37.66" y1="223.9" x2="52.85" y2="223.9"/><line class="cls-4" x1="58.8" y1="223.9" x2="65.73" y2="223.9"/><line class="cls-4" x1="82.9" y1="223.9" x2="104.69" y2="223.9"/><line class="cls-4" x1="117.9" y1="223.9" x2="126.49" y2="223.9"/><line class="cls-4" x1="17.85" y1="239.75" x2="33.7" y2="239.75"/><line class="cls-4" x1="41.29" y1="239.75" x2="74.98" y2="239.75"/><line class="cls-4" x1="90.5" y1="239.75" x2="101.72" y2="239.75"/><line class="cls-4" x1="37.66" y1="255.6" x2="76.96" y2="255.6"/><line class="cls-4" x1="85.21" y1="255.6" x2="93.8" y2="255.6"/><line class="cls-4" x1="101.72" y1="255.6" x2="126.49" y2="255.6"/><line class="cls-4" x1="58.13" y1="271.45" x2="82.9" y2="271.45"/><line class="cls-4" x1="90.5" y1="271.45" x2="104.69" y2="271.45"/><line class="cls-4" x1="115.26" y1="271.45" x2="126.49" y2="271.45"/><line class="cls-4" x1="79.6" y1="287.3" x2="89.5" y2="287.3"/><line class="cls-4" x1="98.09" y1="287.3" x2="120.88" y2="287.3"/><line class="cls-4" x1="17.85" y1="303.15" x2="32.38" y2="303.15"/><line class="cls-4" x1="41.29" y1="303.15" x2="71.01" y2="303.15"/><line class="cls-4" x1="79.6" y1="303.15" x2="93.8" y2="303.15"/><line class="cls-4" x1="101.72" y1="303.15" x2="106.68" y2="303.15"/><line class="cls-4" x1="177.67" y1="144.32" x2="248" y2="73.98"/><rect class="cls-4" x="248" y="41.96" width="55.15" height="32.03"/><circle class="cls-4" cx="9.93" cy="73.32" r="7.93"/><circle class="cls-4" cx="41.29" cy="73.32" r="7.92"/><circle class="cls-4" cx="73.16" cy="73.32" r="7.93"/><circle class="cls-3" cx="215.81" cy="279.38" r="7.93"/><circle class="cls-5" cx="248" cy="279.38" r="7.92"/><line class="cls-4" x1="248" y1="23.46" x2="271.45" y2="23.46"/><line class="cls-4" x1="248" y1="97.1" x2="290.6" y2="97.1"/><line class="cls-4" x1="248" y1="107.34" x2="277.06" y2="107.34"/><line class="cls-4" x1="207.88" y1="223.9" x2="296.38" y2="223.9"/><line class="cls-4" x1="207.88" y1="234.8" x2="268.25" y2="234.8"/></g></g></svg>