<svg xmlns="http://www.w3.org/2000/svg" viewBox="0 0 997.45 180.02"><defs><style>.cls-1{fill:#6bcad3;}.cls-2{fill:#d95a44;}.cls-3{fill:#aeaeae;}</style></defs><g id="Layer_2" data-name="Layer 2"><g id="Layer_1-2" data-name="Layer 1"><path class="cls-1" d="M43.88,133.12H26.68l-4.87,45.64H0L24.38,0H47.47L71.84,178.76H48.75Zm-2.31-20.29-6.16-57.3L29,112.83Z"/><path class="cls-1" d="M118.54,133.12H101.35l-4.88,45.64H74.66L99,0h23.09l24.38,178.76h-23.1Zm-2.31-20.29-6.16-57.3-6.41,57.3Z"/><path class="cls-1" d="M224.25,178.76H201.16l-3.85-68.46c-.52-7.61-5.13-10.15-10.27-10.15h-6.41v78.61H157.54V1.27h33.35c21.81,0,30.79,10.14,30.79,27.89v35.5c0,13.18-3.59,22.82-13.08,26.87,6.15,3.3,9.75,9.39,10.52,18.77ZM180.63,21.55V79.87h10.26q7.71,0,7.7-7.61V29.16q0-7.6-7.7-7.61Z"/><path class="cls-1" d="M238.36,29.16C238.36,11.41,248.62,0,270.43,0S302.5,11.41,302.5,29.16V150.87c0,17.74-10.26,29.15-32.07,29.15s-32.07-11.41-32.07-29.15Zm41.05,0c0-5.07-3.85-7.61-9-7.61s-9,2.54-9,7.61V150.87c0,5.07,3.85,7.6,9,7.6s9-2.53,9-7.6Z"/><path class="cls-1" d="M384.61,1.27V178.76H359l-18.73-96.1c.51,15.72.77,30.43.77,45.39v50.71H320.46V1.27h25.66l18.73,96.1c-.51-15.72-.77-30.43-.77-45.39V1.27Z"/><path class="cls-2" d="M662.88,133.75h-17.2l-4.87,45.64H619L643.38.63h23.09l24.37,178.76H667.75Zm-2.31-20.28-6.16-57.31L648,113.47Z"/><path class="cls-2" d="M768.58,179.39H745.49l-3.85-68.46c-.51-7.61-5.13-10.14-10.26-10.14H725v78.6h-23.1V1.9h33.36C757,1.9,766,12,766,29.79v35.5c0,13.19-3.59,22.82-13.09,26.88,6.16,3.29,9.75,9.38,10.52,18.76ZM725,22.19V80.5h10.26q7.69,0,7.7-7.6V29.79q0-7.6-7.7-7.6Z"/><path class="cls-2" d="M848.12,1.9V179.39H822.46l-18.73-96.1c.52,15.72.77,30.43.77,45.39v50.71H784V1.9h25.65L828.36,98c-.51-15.72-.77-30.43-.77-45.39V1.9Z"/><path class="cls-2" d="M890.46,22.19V80.5h24.88v20.29H890.46v58.32H920v20.28h-52.6V1.9H920V22.19Z"/><path class="cls-2" d="M997.45,1.9,973.08,116v63.39H950V116L925.61,1.9H948.7l13.6,75.31L975.64,1.9Z"/><path class="cls-3" d="M505.79,178.92c-52-.53-87.34-42.37-87.86-87.86-.53-46.3,36.35-90.49,89.44-90,56.21.52,89.94,47.32,88.12,88.9C597.84,131.32,563.58,179.7,505.79,178.92Zm-33-147.75c-6.27,3.4-11,8.37-15.95,13.33a65.29,65.29,0,0,0-11.5,74.27,64.55,64.55,0,0,0,16.73,21.7c18.57,15.7,39.23,22,63,14.9,24.07-7.05,40-22.75,47.06-46.8,6.81-21.7,1.84-52.82-22.73-71.9-12.3-9.43-26.16-14.91-42.9-14.39C495.07,21,483.56,25.15,472.84,31.17Z"/><path class="cls-1" d="M485.76,108.41c-2.9,0-5.68.12-8.58.23a8.69,8.69,0,0,0-5,1.74,10.45,10.45,0,0,0-2.9,4.53c-.7,1.62-1.28,3.36-2,5a5.21,5.21,0,0,1-6,3.71,13.17,13.17,0,0,1-1.62-.35c-.35-.46-.82-1-1.4-1.86.35-1.16.47-2.43.93-3.59,4.88-12,9.75-23.9,14.51-35.85,3.36-8.36,6.61-16.83,10-25.18,1.28-3.25,2.79-6.61,4.3-9.86.11-.35.81-.7,1.16-.81a2.14,2.14,0,0,1,1.39.58,12.36,12.36,0,0,1,1.16,2.09c1.62,3.94,3.36,8,5,12.06,2.78,7,5.45,13.92,8.35,20.77l15,37.24a7.9,7.9,0,0,1,.46,2.32,2.77,2.77,0,0,1-1.74,2.32,6.53,6.53,0,0,1-6.84-2.43,31.24,31.24,0,0,1-1.86-3.37c-.58-1.39-1-2.9-1.62-4.29a7.67,7.67,0,0,0-5.34-4.76C497.6,108.53,491.68,108.53,485.76,108.41Zm-4.06-9.28c5.11.11,10.33.11,15.43.11.23,0,.47-.23.7-.23a3.86,3.86,0,0,0,2.67-3.36,6.54,6.54,0,0,0-.47-3c-2.09-5.57-4.41-10.9-6.73-16.36a15.69,15.69,0,0,0-1.51-2.67c-1-1.39-3.82-1.5-4.75-.11a29.3,29.3,0,0,0-2,3.25c-2,4.52-3.82,8.93-5.68,13.46-.7,1.62-1.16,3.36-1.74,5C478.34,98.08,479.84,99.13,481.7,99.13Z"/><path class="cls-2" d="M520.57,108.41c-2.9,0-5.69.12-8.59.23a8.69,8.69,0,0,0-5,1.74,10.54,10.54,0,0,0-2.9,4.53c-.7,1.62-1.28,3.36-2,5a5.22,5.22,0,0,1-6,3.71,13.26,13.26,0,0,1-1.63-.35c-.35-.46-.81-1-1.39-1.86.35-1.16.46-2.43.93-3.59,4.87-12,9.74-23.9,14.5-35.85,3.36-8.36,6.61-16.83,10-25.18,1.27-3.25,2.78-6.61,4.29-9.86.12-.35.81-.7,1.16-.81a2.14,2.14,0,0,1,1.39.58,11.11,11.11,0,0,1,1.16,2.09c1.63,3.94,3.37,8,5,12.06,2.79,7,5.45,13.92,8.36,20.77q7.47,18.61,15,37.24a7.6,7.6,0,0,1,.47,2.32,2.79,2.79,0,0,1-1.74,2.32,6.54,6.54,0,0,1-6.85-2.43,31.24,31.24,0,0,1-1.86-3.37c-.58-1.39-1-2.9-1.62-4.29a7.65,7.65,0,0,0-5.34-4.76C532.4,108.53,526.48,108.53,520.57,108.41Zm-4.06-9.28c5.1.11,10.32.11,15.43.11.23,0,.46-.23.69-.23a3.86,3.86,0,0,0,2.67-3.36,6.67,6.67,0,0,0-.46-3c-2.09-5.57-4.41-10.9-6.73-16.36a15.69,15.69,0,0,0-1.51-2.67c-1.05-1.39-3.83-1.5-4.76-.11a30.84,30.84,0,0,0-2,3.25c-2,4.52-3.83,8.93-5.69,13.46-.69,1.62-1.16,3.36-1.74,5C513.14,98.08,514.65,99.13,516.51,99.13Z"/></g></g></svg>