<svg id="Capa_1" enable-background="new 0 0 512 512" height="512" viewBox="0 0 512 512" width="512" xmlns="http://www.w3.org/2000/svg"><g><path d="m120 7.5 120 422h-165v-377c0-24.85 20.15-45 45-45z" fill="#e8412e"/><path d="m437 7.5v377l-120 15 90-392z" fill="#ff5a47"/><path d="m120 7.5h287v392h-287z" fill="#fe8047"/><path d="m437 474.5v30h-30l-30-60z" fill="#e8412e"/><path d="m437 384.5v30l-60 30 30-60z" fill="#e8412e"/><path d="m120 384.5c-24.85 0-45 20.15-45 45v30c0 24.85 20.15 45 45 45h287v-120z" fill="#ff5a47"/><path d="m407 414.5h30c-8.29 8.29-12.44 19.14-12.44 30l-60 15z" fill="#fff7ba"/><path d="m437 474.5h-30l-42.44-30h60c0 10.86 4.15 21.71 12.44 30z" fill="#fff04a"/><path d="m407 474.5h-287c-8.28 0-15-6.72-15-15v-15l15-15h259.56l15 15c0 10.86 4.15 21.71 12.44 30z" fill="#fff7ba"/><path d="m120 414.5h287c-8.29 8.29-12.44 19.14-12.44 30h-289.56v-15c0-8.28 6.72-15 15-15z" fill="#fff"/><path d="m347 67.5-90 52.5 90 52.5h30v-105z" fill="#fcd72b"/><path d="m180 172.5v-105h167v30l-15 22.5 15 22.5v30z" fill="#fff04a"/><path d="m210 97.5h137v45h-137z" fill="#fff7ba"/><path d="m437 0h-317c-28.948 0-52.5 23.551-52.5 52.5v407c0 28.949 23.552 52.5 52.5 52.5h317c4.143 0 7.5-3.358 7.5-7.5v-30c0-1.989-.79-3.897-2.196-5.303-13.618-13.618-13.618-35.776 0-49.394 1.406-1.406 2.196-3.314 2.196-5.303v-407c0-4.142-3.357-7.5-7.5-7.5zm-354.5 52.5c0-18.109 12.904-33.262 30-36.747v361.781c-11.673 1.677-22.118 7.208-30 15.259zm37.5 444.5c-20.678 0-37.5-16.822-37.5-37.5v-30c0-20.678 16.822-37.5 37.5-37.5 4.143 0 7.5-3.358 7.5-7.5v-369.5h302v362h-279.5c-4.143 0-7.5 3.358-7.5 7.5s3.357 7.5 7.5 7.5h279.5v15h-309.5c-12.406 0-22.5 10.093-22.5 22.5v30c0 12.407 10.094 22.5 22.5 22.5h309.5v15zm-7.5-45h305.131c.788 5.255 2.403 10.305 4.781 15h-302.412c-4.136 0-7.5-3.364-7.5-7.5zm305.131-15h-305.131v-7.5c0-4.136 3.364-7.5 7.5-7.5h302.412c-2.377 4.695-3.992 9.745-4.781 15z"/><path d="m180 180h197c4.143 0 7.5-3.358 7.5-7.5v-105c0-4.142-3.357-7.5-7.5-7.5h-197c-4.143 0-7.5 3.358-7.5 7.5v105c0 4.142 3.357 7.5 7.5 7.5zm7.5-105h182v90h-182z"/><path d="m347 90h-137c-4.143 0-7.5 3.358-7.5 7.5v45c0 4.142 3.357 7.5 7.5 7.5h137c4.143 0 7.5-3.358 7.5-7.5v-45c0-4.142-3.357-7.5-7.5-7.5zm-7.5 45h-122v-30h122z"/></g></svg>