<svg xmlns="http://www.w3.org/2000/svg" viewBox="0 0 20.195 17.891">
  <defs>
    <style>
      .cls-1 {
        fill: #d95a44;
      }

      .cls-2 {
        fill: #6bcad3;
      }
    </style>
  </defs>
  <g id="Group_19" data-name="Group 19" transform="translate(-1097.307 -28.073)">
    <path id="codepen" class="cls-1" d="M2.156,11.671l6.02,4.013V12.1L4.842,9.874Zm-.619-1.438L3.464,8.945,1.537,7.657Zm8.177,5.451,6.02-4.013-2.686-1.8L9.714,12.1Zm-.769-4.922,2.716-1.817L8.945,7.128,6.23,8.945Zm-4.1-2.745L8.177,5.79V2.206L2.156,6.22Zm9.584.928,1.927,1.288V7.657Zm-1.378-.928,2.686-1.8L9.714,2.206V5.79Zm4.842-1.8v5.451a.729.729,0,0,1-.339.639L9.375,17.761a.775.775,0,0,1-.859,0L.339,12.31A.729.729,0,0,1,0,11.671V6.22a.729.729,0,0,1,.339-.639L8.516.13a.775.775,0,0,1,.859,0l8.177,5.451A.729.729,0,0,1,17.891,6.22Z" transform="translate(1099.612 28.073)"/>
    <path id="codepen-2" data-name="codepen" class="cls-2" d="M2.156,11.671l6.02,4.013V12.1L4.842,9.874Zm-.619-1.438L3.464,8.945,1.537,7.657Zm8.177,5.451,6.02-4.013-2.686-1.8L9.714,12.1Zm-.769-4.922,2.716-1.817L8.945,7.128,6.23,8.945Zm-4.1-2.745L8.177,5.79V2.206L2.156,6.22Zm9.584.928,1.927,1.288V7.657Zm-1.378-.928,2.686-1.8L9.714,2.206V5.79Zm4.842-1.8v5.451a.729.729,0,0,1-.339.639L9.375,17.761a.775.775,0,0,1-.859,0L.339,12.31A.729.729,0,0,1,0,11.671V6.22a.729.729,0,0,1,.339-.639L8.516.13a.775.775,0,0,1,.859,0l8.177,5.451A.729.729,0,0,1,17.891,6.22Z" transform="translate(1097.307 28.073)"/>
  </g>
</svg>
