<svg xmlns="http://www.w3.org/2000/svg" viewBox="0 0 317 312.12"><defs><style>.cls-1{fill:#6bcad3;}.cls-2{fill:#d95a44;}.cls-3{fill:#d3dbdd;}.cls-4{fill:#3ab1cc;}.cls-5{fill:#dee0df;}.cls-6{fill:#fff;}.cls-7{fill:#525252;}.cls-8,.cls-9{fill:none;stroke:#525252;stroke-miterlimit:10;}.cls-8{stroke-width:2px;}.cls-9{stroke-width:4px;}</style></defs><title>general</title><g id="Layer_2" data-name="Layer 2"><g id="general"><circle class="cls-1" cx="160.94" cy="156.06" r="156.06"/><rect class="cls-2" x="31.21" y="280.91" width="265.3" height="31.21"/><rect class="cls-3" x="296.52" y="280.91" width="15.61" height="31.21"/><polygon class="cls-3" points="0 296.52 31.21 280.91 31.21 312.12 0 296.52"/><polyline class="cls-2" points="16.09 304.56 0 296.52 16.09 288.47"/><polygon class="cls-4" points="42.55 34.26 145.33 0 248.11 34.26 145.33 68.52 42.55 34.26"/><path class="cls-5" d="M206.62,124.38s9.1-30.63-.61-55.5a55.47,55.47,0,0,0-5.45-10.54c1.93-2.77,2.48-7.71,2.82-13.29.46-7.56,7.11-17.41,7.11-17.41-7.79.68-15.36,6.18-17.42,10.08s-7.72,4.77-7.72,4.77l.31.69c-11.15-7.73-24.92-11.6-38.78-11.6h0c-13.87,0-27.63,3.87-38.79,11.6l.31-.69s-5.66-.87-7.72-4.77-9.62-9.4-17.42-10.08c0,0,6.65,9.85,7.11,17.41.34,5.58.89,10.52,2.82,13.29a55.47,55.47,0,0,0-5.45,10.54c-9.71,24.87-.61,55.5-.61,55.5s-7.58,16.37-7.58,41.85,6.07,69.14,66.11,89.46,86.43,56,86.43,56S281.22,172.59,206.62,124.38Z"/><path class="cls-6" d="M146.27,134.08c38.51,0,50-24,51.55-34s.91-38.82-19.4-45.19-32.15,5.76-32.15,5.76-11.83-12.13-32.15-5.76S93.2,90.11,94.71,100.12,107.76,134.08,146.27,134.08Z"/><path class="cls-7" d="M126.34,93.56c-11.6,7-17.35-2.34-17.35-2.34C120.58,84.22,126.34,93.56,126.34,93.56Z"/><path class="cls-8" d="M167.31,93.56c11.59,7,17.35-2.34,17.35-2.34"/><path class="cls-2" d="M147.37,101.59c5.46,1.25,5.11,7.51,4.43,10.92s-4.89,10.12-4.89,10.12-4.2-6.71-4.89-10.12-1-9.67,4.44-10.92Z"/><path class="cls-9" d="M181.14,142.87s-9.28,40,17.2,64.6,36,36.85,36,54.59"/><path class="cls-9" d="M151.22,257.65A35.5,35.5,0,0,1,146,269.34c-3.79,5.15-14.1-3.49-25,1.21s-5.46,12.28-5.46,12.28"/><path class="cls-9" d="M125.19,284.19S126.53,270.62,142,271s19.57,4.66,19.57,4.66"/><path class="cls-9" d="M138.88,287.38s-4.88-12.45,5.58-16.24"/><path class="cls-9" d="M143.39,289.2s.76-12.41,14.55-11.59,14.71-10.84,14.71-10.84"/><path class="cls-9" d="M155.52,294.2S152.08,283,161,279.26s22.42,1.14,26.81,6.15"/><path class="cls-9" d="M164.49,278.26s-3.51,10.64,4.83,12.15"/><line class="cls-9" x1="247.97" y1="34.23" x2="247.97" y2="158.1"/><polyline class="cls-9" points="237.83 178.61 247.85 158.26 258.39 178.29"/><polyline class="cls-9" points="241.8 183.83 247.85 158.26 247.85 185.08"/><line class="cls-9" x1="253.91" y1="183.83" x2="247.85" y2="158.26"/><path class="cls-1" d="M184.66,43.18c-41.63-26.08-76.57,0-76.57,0s.67-22.45,37.49-22.45S184.66,43.18,184.66,43.18Z"/><path class="cls-9" d="M108.09,43.18s34.94-26.08,76.57,0"/><line class="cls-9" x1="50.72" y1="280.91" x2="50.72" y2="311.72"/><line class="cls-9" x1="67.3" y1="280.91" x2="67.3" y2="311.72"/><line class="cls-9" x1="81.28" y1="280.91" x2="81.28" y2="311.72"/></g></g></svg>