<svg xmlns="http://www.w3.org/2000/svg" viewBox="0 0 26.305 24">
  <defs>
    <style>
      .cls-1 {
        fill: #d95a44;
      }

      .cls-2 {
        fill: none;
      }

      .cls-3 {
        fill: #6bcad3;
      }
    </style>
  </defs>
  <g id="Group_18" data-name="Group 18" transform="translate(-1130.375 -25)">
    <g id="github" transform="translate(1132.68 25)">
      <g id="Layer_x0020_1" transform="translate(3.99 3.188)">
        <path id="Path_24" data-name="Path 24" class="cls-1" d="M345.678,289.671a1.251,1.251,0,0,1-.224-.022l.034-.371h.333a.325.325,0,0,0,.133-.071.353.353,0,0,0,.105-.2.463.463,0,0,0,.007-.082c0-.2,0-.389,0-.641,0-.283-.006-.635-.009-1.039-3.033.551-3.741-1.579-3.77-1.671a2.767,2.767,0,0,0-1.148-1.532l-.025-.014c-1.529-1.045.178-1.023.183-1.023h.012a2.542,2.542,0,0,1,1.867,1.248h0a2.134,2.134,0,0,0,1.255,1.057,2.632,2.632,0,0,0,1.678-.161,3.114,3.114,0,0,1,.25-.817,2.34,2.34,0,0,1,.248-.411,6.282,6.282,0,0,1-3.225-1.263,5.4,5.4,0,0,1-1.688-4.419h0a4.687,4.687,0,0,1,.3-1.691,4.519,4.519,0,0,1,.824-1.357,3.651,3.651,0,0,1-.189-.96,4.667,4.667,0,0,1,.34-2.038l.007-.015a.605.605,0,0,1,.333-.128,2.369,2.369,0,0,1,.584.053,6.858,6.858,0,0,1,2.367,1.1,10.379,10.379,0,0,1,1.311-.261,11.372,11.372,0,0,1,1.463-.1h0a11.364,11.364,0,0,1,1.462.1,10.431,10.431,0,0,1,1.312.261c2.166-1.446,3.163-1.127,3.166-1.126l.087.026.034.085a4.662,4.662,0,0,1,.342,2.037,3.664,3.664,0,0,1-.188.959,4.491,4.491,0,0,1,.822,1.355,4.7,4.7,0,0,1,.3,1.694,5.383,5.383,0,0,1-1.691,4.422,6.283,6.283,0,0,1-3.23,1.252,2.483,2.483,0,0,1,.353.656,3.716,3.716,0,0,1,.209,1.281c0,.9-.007,1.835-.011,2.455,0,.227,0,.4,0,.622h0a.473.473,0,0,0,.009.089.351.351,0,0,0,.1.2.316.316,0,0,0,.119.066h.352l.035.371a1.254,1.254,0,0,1-.236.024.923.923,0,0,1-.2-.021h-6.313A.932.932,0,0,1,345.678,289.671Z" transform="translate(-340.473 -272.047)"/>
      </g>
      <rect id="Rectangle_2" data-name="Rectangle 2" class="cls-2" width="24" height="24"/>
    </g>
    <g id="github-2" data-name="github" transform="translate(1130.375 25)">
      <g id="Layer_x0020_1-2" data-name="Layer_x0020_1" transform="translate(3.99 3.188)">
        <path id="Path_24-2" data-name="Path 24" class="cls-3" d="M345.678,289.671a1.251,1.251,0,0,1-.224-.022l.034-.371h.333a.325.325,0,0,0,.133-.071.353.353,0,0,0,.105-.2.463.463,0,0,0,.007-.082c0-.2,0-.389,0-.641,0-.283-.006-.635-.009-1.039-3.033.551-3.741-1.579-3.77-1.671a2.767,2.767,0,0,0-1.148-1.532l-.025-.014c-1.529-1.045.178-1.023.183-1.023h.012a2.542,2.542,0,0,1,1.867,1.248h0a2.134,2.134,0,0,0,1.255,1.057,2.632,2.632,0,0,0,1.678-.161,3.114,3.114,0,0,1,.25-.817,2.34,2.34,0,0,1,.248-.411,6.282,6.282,0,0,1-3.225-1.263,5.4,5.4,0,0,1-1.688-4.419h0a4.687,4.687,0,0,1,.3-1.691,4.519,4.519,0,0,1,.824-1.357,3.651,3.651,0,0,1-.189-.96,4.667,4.667,0,0,1,.34-2.038l.007-.015a.605.605,0,0,1,.333-.128,2.369,2.369,0,0,1,.584.053,6.858,6.858,0,0,1,2.367,1.1,10.379,10.379,0,0,1,1.311-.261,11.372,11.372,0,0,1,1.463-.1h0a11.364,11.364,0,0,1,1.462.1,10.431,10.431,0,0,1,1.312.261c2.166-1.446,3.163-1.127,3.166-1.126l.087.026.034.085a4.662,4.662,0,0,1,.342,2.037,3.664,3.664,0,0,1-.188.959,4.491,4.491,0,0,1,.822,1.355,4.7,4.7,0,0,1,.3,1.694,5.383,5.383,0,0,1-1.691,4.422,6.283,6.283,0,0,1-3.23,1.252,2.483,2.483,0,0,1,.353.656,3.716,3.716,0,0,1,.209,1.281c0,.9-.007,1.835-.011,2.455,0,.227,0,.4,0,.622h0a.473.473,0,0,0,.009.089.351.351,0,0,0,.1.2.316.316,0,0,0,.119.066h.352l.035.371a1.254,1.254,0,0,1-.236.024.923.923,0,0,1-.2-.021h-6.313A.932.932,0,0,1,345.678,289.671Z" transform="translate(-340.473 -272.047)"/>
      </g>
      <rect id="Rectangle_2-2" data-name="Rectangle 2" class="cls-2" width="24" height="24"/>
    </g>
  </g>
</svg>
