<svg id="Layer_1" height="512" viewBox="0 0 512 512" width="512" xmlns="http://www.w3.org/2000/svg" data-name="Layer 1"><path d="m501 256q0 1.23-.03 2.46a31.046 31.046 0 1 1 -9.13-52 137.563 137.563 0 0 1 9.16 49.54z" fill="#7d97b2"/><path d="m337.15 391.62a136.9 136.9 0 0 1 -43.47-16.23c-.01.01-.01.01-.01 0a138.565 138.565 0 0 1 -54.04-57.39l.09-.05a30.172 30.172 0 0 0 3.17.16 31.055 31.055 0 1 0 -17.83-56.48c-.07-1.87-.11-3.74-.11-5.63a137.839 137.839 0 0 1 124.79-137.4l.03.3a30.17 30.17 0 0 0 -.6 5.98 29.67 29.67 0 0 0 59.33.77 138.439 138.439 0 0 1 83.34 80.81 31.06 31.06 0 1 0 9.13 52 138.152 138.152 0 0 1 -163.82 133.16z" fill="#e5f5fd"/><path d="m408.5 125.65a29.67 29.67 0 0 1 -59.33-.77 30.17 30.17 0 0 1 .6-5.98l-.03-.3c4.35-.42 8.77-.63 13.23-.63a138.089 138.089 0 0 1 45.53 7.68z" fill="#a6b7d0"/><path d="m332.57 426.03 4.8 18.54-12.43-14.51c-24.25-28.32-70.16-16.92-78.57 19.51l-4.31 18.66-4.3-18.66c-8.41-36.43-54.32-47.83-78.57-19.51l-12.43 14.51 4.8-18.54c9.36-36.19-26.04-67.78-60.57-54.06l-17.7 7.03 12.8-14.17c24.98-27.67 8.22-72.2-28.69-76.22l-18.92-2.06 17.88-6.56c34.88-12.8 40.58-60.08 9.75-80.92l-15.8-10.67 18.86 2.56c36.79 4.99 63.65-34.21 45.96-67.09l-9.06-16.85 15.52 11.09c30.27 21.65 72.14-.48 71.65-37.88l-.25-19.16 8.61 17.08c16.82 33.35 64.11 33.35 80.93 0l8.61-17.08-.25 19.16a45.371 45.371 0 0 0 29.78 43.54l.23.73a137.745 137.745 0 0 0 -43.5 23.19 122.158 122.158 0 1 0 16.27 227.7c0 .01 0 .01.01 0a136.9 136.9 0 0 0 43.47 16.23 45.221 45.221 0 0 0 -4.58 34.41z" fill="#fadf4a"/><path d="m225.06 261.63a137.177 137.177 0 0 0 14.57 56.37 138.565 138.565 0 0 0 54.04 57.39 122.138 122.138 0 1 1 -16.27-227.7 137.787 137.787 0 0 0 -52.45 108.31c0 1.89.04 3.76.11 5.63z" fill="#ff9c40"/><path d="m242.89 256a31.055 31.055 0 1 1 0 62.11 30.172 30.172 0 0 1 -3.17-.16l-.09.05a137.177 137.177 0 0 1 -14.57-56.37 30.9 30.9 0 0 1 17.83-5.63z" fill="#a6b7d0"/><path d="m423.71 329.84a13.805 13.805 0 1 1 -13.81 13.81 13.8 13.8 0 0 1 13.81-13.81z" fill="#95acc6"/><path d="m373.33 233.23a20.01 20.01 0 1 1 -20.02 20.01 20.012 20.012 0 0 1 20.02-20.01z" fill="#95acc6"/><path d="m305.69 176.64a13.8 13.8 0 1 1 -13.8 13.8 13.8 13.8 0 0 1 13.8-13.8z" fill="#95acc6"/><path d="m149.92 264.65a122.162 122.162 0 0 1 107.087-121.226 122.146 122.146 0 1 0 .03 242.456 122.163 122.163 0 0 1 -107.117-121.23z" fill="#fe8700"/><g fill="#284268"><path d="m22.534 403.492-2.634 1.665a6 6 0 1 0 6.41 10.143l2.634-1.665a6 6 0 1 0 -6.41-10.145z"/><path d="m54.566 383.262-15.466 9.765a6 6 0 1 0 6.409 10.145l15.461-9.765a6 6 0 1 0 -6.409-10.145z"/><path d="m242 485.913a6 6 0 0 0 -6 6v2.633a6 6 0 1 0 12 0v-2.633a6 6 0 0 0 -6-6z"/><path d="m353.071 459.943a6 6 0 1 0 -10.471 5.857l2.541 4.546a6 6 0 1 0 10.474-5.854z"/><path d="m295.466 42.45a5.99 5.99 0 0 0 7.251-4.407l4.216-17.285a6 6 0 0 0 -11.659-2.843l-4.215 17.285a6 6 0 0 0 4.407 7.25z"/><path d="m120.113 485.782a6 6 0 0 0 -8.281 1.851l-3.09 4.869a6 6 0 1 0 10.133 6.43l3.09-4.869a6 6 0 0 0 -1.852-8.281z"/><path d="m135.688 461.24a6 6 0 0 0 -8.28 1.851l-5.6 8.829a6 6 0 1 0 10.131 6.431l5.6-8.83a6 6 0 0 0 -1.851-8.281z"/><path d="m72.851 80.034a6 6 0 1 0 8.836-8.119l-6.212-6.761a6 6 0 0 0 -8.836 8.119z"/><path d="m20.38 181.873a6 6 0 0 0 2.279-11.552l-9.382-3.849a6 6 0 1 0 -4.554 11.1l9.381 3.849a5.965 5.965 0 0 0 2.276.452z"/><path d="m362.975 111.975a143.565 143.565 0 0 0 -40.871 5.916 39.367 39.367 0 0 1 -25.212-37.582l.25-19.16a6 6 0 0 0 -11.357-2.78l-8.617 17.082a39.236 39.236 0 0 1 -70.207 0l-7.9-15.649c0-.02 0-.04-.01-.061l-10.174-44.788a6 6 0 1 0 -11.7 2.659l9.832 43.261c0 .093-.022.183-.021.276l.251 19.16a39.06 39.06 0 0 1 -21.267 35.791 38.463 38.463 0 0 1 -40.9-2.868l-15.511-11.091c-.072-.051-.151-.086-.225-.133l-14.003-15.242a6 6 0 1 0 -8.833 8.119l14.75 16.051c.081.088.168.165.253.247l8.351 15.528a39.286 39.286 0 0 1 -2.346 41.7 38.6 38.6 0 0 1 -37.531 16.6l-17.2-2.336-12.01-4.927a6 6 0 0 0 -4.555 11.1l10.476 4.3c.092.072.173.154.272.221l15.8 10.676a39.861 39.861 0 0 1 -8.461 70.317l-17.873 6.559a5.963 5.963 0 0 0 -.967.46l-14 1.749a6 6 0 0 0 .736 11.955 6.172 6.172 0 0 0 .752-.047l16.281-2.038a5.989 5.989 0 0 0 1.01-.222l16.508 1.8a38.775 38.775 0 0 1 32.536 25.242 39.264 39.264 0 0 1 -7.644 40.99l-12.8 14.173a6 6 0 0 0 6.668 9.6l17.7-7.03a38.489 38.489 0 0 1 40.362 7.055 39.208 39.208 0 0 1 12.185 39.922l-4.8 18.543a6 6 0 0 0 10.366 5.4l12.426-14.509a39.271 39.271 0 0 1 68.165 16.954l4.309 18.664a6 6 0 0 0 11.693 0l4.31-18.664a39.272 39.272 0 0 1 68.166-16.954l12.425 14.509a6 6 0 0 0 10.366-5.406l-4.8-18.542a39.653 39.653 0 0 1 2.1-26.261 144.49 144.49 0 0 0 22.5 1.76c79.412.001 144.021-64.608 144.021-144.024s-64.609-144.025-144.025-144.025zm-7.787 12.235c2.578-.15 5.172-.235 7.787-.235a131.6 131.6 0 0 1 39.015 5.885 23.674 23.674 0 0 1 -46.818-4.985c0-.221.011-.443.016-.665zm-29.531 297.916a51.257 51.257 0 0 0 -83.593 20.737 51.255 51.255 0 0 0 -83.6-20.731 51.6 51.6 0 0 0 -16.964-46.532 50.909 50.909 0 0 0 -47.533-10.96 51.825 51.825 0 0 0 -30.585-81.13 51.9 51.9 0 0 0 10.4-86.16 51.017 51.017 0 0 0 43.587-22.1 51.694 51.694 0 0 0 5.388-49.279 50.855 50.855 0 0 0 48.774.77 51.43 51.43 0 0 0 27.489-41.041 51.216 51.216 0 0 0 86.084.009 51.027 51.027 0 0 0 21.819 37.624 144.086 144.086 0 0 0 -30.717 17.794 128.145 128.145 0 1 0 17.224 240.958 143.1 143.1 0 0 0 35.07 13.759 51.348 51.348 0 0 0 -2.843 26.282zm-44.885-47.933a116.162 116.162 0 1 1 -38.708-225.693 116.8 116.8 0 0 1 22.717 2.239 143.843 143.843 0 0 0 15.991 223.451zm-49.518-109.318a25.049 25.049 0 1 1 12.225 47.225 131.024 131.024 0 0 1 -12.225-47.225zm263.74-9.3a25.052 25.052 0 1 1 -7.824-44.375 131.388 131.388 0 0 1 7.824 44.377zm-14.694-57.335a37.056 37.056 0 1 0 14 71.36c-6.828 66.435-63.12 118.428-131.329 118.428a132.081 132.081 0 0 1 -113.418-64.528 37.05 37.05 0 1 0 -18.536-71.539c1.941-64.261 50.022-117.122 112.17-126.5a35.669 35.669 0 0 0 70.157 8.511 132.827 132.827 0 0 1 68.348 64.3c-.464-.016-.929-.032-1.392-.032z"/><path d="m373.326 227.226a26.014 26.014 0 1 0 26.014 26.013 26.043 26.043 0 0 0 -26.014-26.013zm0 40.027a14.014 14.014 0 1 1 14.014-14.014 14.03 14.03 0 0 1 -14.014 14.014z"/><path d="m423.706 323.844a19.8 19.8 0 1 0 19.8 19.8 19.825 19.825 0 0 0 -19.8-19.8zm0 27.605a7.8 7.8 0 1 1 7.8-7.8 7.811 7.811 0 0 1 -7.8 7.8z"/><circle cx="320.877" cy="338.815" r="11"/><path d="m325.5 190.438a19.8 19.8 0 1 0 -19.8 19.8 19.826 19.826 0 0 0 19.8-19.8zm-19.8 7.8a7.8 7.8 0 1 1 7.8-7.8 7.811 7.811 0 0 1 -7.807 7.802z"/></g></svg>