<svg xmlns="http://www.w3.org/2000/svg" viewBox="0 0 24.33 17.891">
  <defs>
    <style>
      .cls-1 {
        fill: #d95a44;
      }

      .cls-2 {
        fill: #6bcad3;
      }
    </style>
  </defs>
  <g id="Group_20" data-name="Group 20" transform="translate(-1060 -28.073)">
    <g id="twitter-logo-silhouette" transform="translate(1062.305 28.073)">
      <g id="Group_10" data-name="Group 10" transform="translate(0 0)">
        <path id="Path_23" data-name="Path 23" class="cls-1" d="M22.026,59.558a9.023,9.023,0,0,1-2.594.712,4.537,4.537,0,0,0,1.986-2.5,9.109,9.109,0,0,1-2.871,1.1,4.522,4.522,0,0,0-7.7,4.119,12.827,12.827,0,0,1-9.312-4.721,4.523,4.523,0,0,0,1.4,6.031,4.518,4.518,0,0,1-2.047-.567v.056a4.523,4.523,0,0,0,3.624,4.43,4.577,4.577,0,0,1-1.19.158,4.337,4.337,0,0,1-.851-.084A4.521,4.521,0,0,0,6.69,71.43a9.065,9.065,0,0,1-5.611,1.931A9.6,9.6,0,0,1,0,73.3a12.772,12.772,0,0,0,6.926,2.033A12.766,12.766,0,0,0,19.781,62.477l-.015-.585A9.022,9.022,0,0,0,22.026,59.558Z" transform="translate(-0.001 -57.441)"/>
      </g>
    </g>
    <g id="twitter-logo-silhouette-2" data-name="twitter-logo-silhouette" transform="translate(1060 28.073)">
      <g id="Group_10-2" data-name="Group 10" transform="translate(0 0)">
        <path id="Path_23-2" data-name="Path 23" class="cls-2" d="M22.026,59.558a9.023,9.023,0,0,1-2.594.712,4.537,4.537,0,0,0,1.986-2.5,9.109,9.109,0,0,1-2.871,1.1,4.522,4.522,0,0,0-7.7,4.119,12.827,12.827,0,0,1-9.312-4.721,4.523,4.523,0,0,0,1.4,6.031,4.518,4.518,0,0,1-2.047-.567v.056a4.523,4.523,0,0,0,3.624,4.43,4.577,4.577,0,0,1-1.19.158,4.337,4.337,0,0,1-.851-.084A4.521,4.521,0,0,0,6.69,71.43a9.065,9.065,0,0,1-5.611,1.931A9.6,9.6,0,0,1,0,73.3a12.772,12.772,0,0,0,6.926,2.033A12.766,12.766,0,0,0,19.781,62.477l-.015-.585A9.022,9.022,0,0,0,22.026,59.558Z" transform="translate(-0.001 -57.441)"/>
      </g>
    </g>
  </g>
</svg>
