<svg xmlns="http://www.w3.org/2000/svg" viewBox="0 0 322 322.5"><defs><style>.cls-1{fill:#3ab1cc;}.cls-2{fill:#6bcad3;}.cls-3{fill:#aeaeae;}.cls-4{fill:#dee0df;}.cls-5{fill:#fff;}.cls-6{fill:#525252;}.cls-7{fill:#d95a44;}</style></defs><title>virtual reality</title><g id="Layer_2" data-name="Layer 2"><g id="virtual_reality" data-name="virtual reality"><path class="cls-1" d="M17.74,285.33,1.74,322H30.62a77.59,77.59,0,0,0-12-36.82C18,285.29,17.74,285.33,17.74,285.33Z"/><path class="cls-1" d="M306,285.33l-.33-.06a77.5,77.5,0,0,0-12,36.73H322Z"/><path class="cls-2" d="M261.32,271a185.07,185.07,0,0,1-43.6-25.62,61.85,61.85,0,0,1-111.71,0A184.94,184.94,0,0,1,62.4,271c-24.88,10.13-40.22,13.47-43.83,14.18A77.59,77.59,0,0,1,30.62,322H293.67a77.5,77.5,0,0,1,12-36.73C303.26,284.83,287.63,281.71,261.32,271Z"/><path class="cls-3" d="M161.86,280.67a61.84,61.84,0,0,0,55.86-35.29C208.24,237.73,202,230.51,202,226V178H121.74v48c0,4.51-6.25,11.73-15.73,19.38A61.83,61.83,0,0,0,161.86,280.67Z"/><path class="cls-4" d="M224.25,90.08s4.24-2.81,10.9,0,8.88,28-10.9,36.41c0,0-4,26.88-7.26,38.8S180.21,203,161.86,203,110,177.21,106.74,165.29s-7.27-38.8-7.27-38.8C79.7,118,81.92,92.9,88.58,90.08s10.89,0,10.89,0c0-11.24.57-15,8.63-23.43,8.81-9.21,19.13-17.6,31.38-21.66,10.66-3.54,21.71-3.74,32.77-5.17,6.86-.88,16.11-2.32,23.08-.19,11.38,3.5,21.26,13.41,26,24.17C222.62,66.7,227.78,87.74,224.25,90.08Z"/><path class="cls-3" d="M98.62,98s4.83-27.5,24.77-27.5h58.29S198.33,72,196.8,50c0,0,0,19.5,14,19.5S225.93,98,225.93,98h0s1.09-3.67,4.64-16c5.68-19.75.2-64-33.77-64,0,0-3-16-25.86-16s-44.27,6.5-61.58,27.5C92.62,49.81,98.62,98,98.62,98Z"/><rect class="cls-5" x="92" y="82" width="140.51" height="48"/><path class="cls-6" d="M234.51,132H90V80H234.51ZM94,128H230.51V84H94Z"/><path class="cls-6" d="M229.07,140.62H95.44V128H229.07Zm-129.63-4H225.07V132H99.44Z"/><path class="cls-6" d="M229.07,84H95.44V71.38H229.07ZM99.44,80H225.07V75.38H99.44Z"/><path class="cls-6" d="M68,322.5H64V114c0-14.24,11.77-18,18-18H92v4H82c-.57,0-14,.23-14,14Z"/><rect class="cls-7" x="100.62" y="90.62" width="7.38" height="7.38"/><rect class="cls-2" x="114" y="90.62" width="7.38" height="7.38"/><rect class="cls-6" x="258" y="80" width="64" height="4"/><rect class="cls-6" x="258" y="96.25" width="64" height="4"/><rect class="cls-6" x="258" y="112" width="64" height="4"/><rect class="cls-6" x="258" y="128" width="33.5" height="4"/><path class="cls-6" d="M26,52A26,26,0,1,1,52,26,26,26,0,0,1,26,52ZM26,4A22,22,0,1,0,48,26,22,22,0,0,0,26,4Z"/><path class="cls-6" d="M98,52a18,18,0,1,1,18-18A18,18,0,0,1,98,52Zm0-32a14,14,0,1,0,14,14A14,14,0,0,0,98,20Z"/><path class="cls-6" d="M34,120A22,22,0,1,1,56,98,22,22,0,0,1,34,120Zm0-40A18,18,0,1,0,52,98,18,18,0,0,0,34,80Z"/><rect class="cls-6" x="18" y="24" width="16" height="4"/><rect class="cls-6" x="93.5" y="32" width="9" height="4"/><rect class="cls-6" x="24" y="18" width="4" height="16"/><path class="cls-6" d="M28.78,108V88.55l13.94,9.7Zm4-11.74v4.08l2.94-2Z"/></g></g></svg>