<svg xmlns="http://www.w3.org/2000/svg" viewBox="0 0 320 322"><defs><style>.cls-1{fill:#6bcad3;}.cls-2{fill:none;stroke:#fff;stroke-miterlimit:10;stroke-width:4px;}.cls-3{fill:#d95a44;}.cls-4{fill:#fff;}.cls-5{fill:#dee0df;}</style></defs><title>code</title><g id="Layer_2" data-name="Layer 2"><g id="code"><rect class="cls-1" width="320" height="47.53"/><polyline class="cls-2" points="314.5 47.53 314.5 320 6.5 320 6.5 47.53"/><circle class="cls-3" cx="297.25" cy="24.25" r="7.75"/><circle class="cls-2" cx="297.25" cy="24.25" r="7.75"/><circle class="cls-4" cx="263.75" cy="24.25" r="7.75"/><circle class="cls-2" cx="263.75" cy="24.25" r="7.75"/><circle class="cls-5" cx="231.75" cy="24.25" r="7.75"/><circle class="cls-2" cx="231.75" cy="24.25" r="7.75"/><line class="cls-2" x1="60.11" y1="80.58" x2="60.11" y2="97.14"/><path class="cls-2" d="M87.29,88.86a6.8,6.8,0,1,1-6.8-6.79A6.79,6.79,0,0,1,87.29,88.86Z"/><line class="cls-2" x1="100.88" y1="80.58" x2="100.88" y2="97.14"/><line class="cls-2" x1="141.64" y1="80.58" x2="141.64" y2="97.14"/><line class="cls-2" x1="155.22" y1="80.58" x2="155.22" y2="97.14"/><path class="cls-2" d="M128.05,88.86a6.8,6.8,0,1,1-6.79-6.79A6.79,6.79,0,0,1,128.05,88.86Z"/><line class="cls-2" x1="155.22" y1="124.1" x2="155.22" y2="107.54"/><path class="cls-2" d="M128.05,115.82a6.8,6.8,0,1,1,6.79,6.8A6.79,6.79,0,0,1,128.05,115.82Z"/><line class="cls-2" x1="114.46" y1="124.1" x2="114.46" y2="107.54"/><line class="cls-2" x1="73.7" y1="124.1" x2="73.7" y2="107.54"/><line class="cls-2" x1="60.11" y1="124.1" x2="60.11" y2="107.54"/><path class="cls-2" d="M87.29,115.82a6.8,6.8,0,1,1,6.79,6.8A6.79,6.79,0,0,1,87.29,115.82Z"/><line class="cls-2" x1="264.35" y1="124.1" x2="264.35" y2="107.54"/><path class="cls-2" d="M237.17,115.82a6.8,6.8,0,1,1,6.8,6.8A6.8,6.8,0,0,1,237.17,115.82Z"/><line class="cls-2" x1="223.59" y1="124.1" x2="223.59" y2="107.54"/><line class="cls-2" x1="182.82" y1="124.1" x2="182.82" y2="107.54"/><line class="cls-2" x1="169.24" y1="124.1" x2="169.24" y2="107.54"/><line class="cls-2" x1="209.79" y1="207.33" x2="209.79" y2="190.77"/><path class="cls-2" d="M182.61,199a6.8,6.8,0,1,1,6.8,6.8A6.79,6.79,0,0,1,182.61,199Z"/><line class="cls-2" x1="169.03" y1="207.33" x2="169.03" y2="190.77"/><line class="cls-2" x1="128.26" y1="207.33" x2="128.26" y2="190.77"/><line class="cls-2" x1="114.68" y1="207.33" x2="114.68" y2="190.77"/><line class="cls-2" x1="100.88" y1="207.33" x2="100.88" y2="190.77"/><line class="cls-2" x1="87.29" y1="207.33" x2="87.29" y2="190.77"/><path class="cls-2" d="M141.85,199a6.8,6.8,0,1,1,6.79,6.8A6.79,6.79,0,0,1,141.85,199Z"/><line class="cls-2" x1="237.39" y1="207.33" x2="237.39" y2="190.77"/><line class="cls-2" x1="223.8" y1="207.33" x2="223.8" y2="190.77"/><line class="cls-2" x1="223.16" y1="178.03" x2="223.16" y2="161.47"/><path class="cls-2" d="M196,169.75a6.79,6.79,0,1,1,6.79,6.79A6.8,6.8,0,0,1,196,169.75Z"/><line class="cls-2" x1="182.4" y1="178.03" x2="182.4" y2="161.47"/><line class="cls-2" x1="141.64" y1="178.03" x2="141.64" y2="161.47"/><path class="cls-2" d="M155.22,169.75a6.8,6.8,0,1,1,6.8,6.79A6.81,6.81,0,0,1,155.22,169.75Z"/><line class="cls-2" x1="237.17" y1="178.03" x2="237.17" y2="161.47"/><line class="cls-2" x1="127.84" y1="233.01" x2="127.84" y2="216.45"/><path class="cls-2" d="M100.66,224.73a6.8,6.8,0,1,1,6.8,6.8A6.8,6.8,0,0,1,100.66,224.73Z"/><line class="cls-2" x1="87.08" y1="233.01" x2="87.08" y2="216.45"/><path class="cls-2" d="M59.9,224.73a6.8,6.8,0,1,1,6.8,6.8A6.79,6.79,0,0,1,59.9,224.73Z"/><line class="cls-2" x1="141.85" y1="233.01" x2="141.85" y2="216.45"/><line class="cls-2" x1="114.46" y1="151.71" x2="114.46" y2="135.15"/><path class="cls-2" d="M87.29,143.43a6.8,6.8,0,1,1,6.79,6.79A6.79,6.79,0,0,1,87.29,143.43Z"/><path class="cls-2" d="M141.64,143.43a6.79,6.79,0,1,1,6.79,6.79A6.79,6.79,0,0,1,141.64,143.43Z"/><path class="cls-2" d="M169.24,143.43a6.79,6.79,0,1,1,6.79,6.79A6.79,6.79,0,0,1,169.24,143.43Z"/><path class="cls-2" d="M196,143.43a6.79,6.79,0,1,1,6.79,6.79A6.79,6.79,0,0,1,196,143.43Z"/><line class="cls-2" x1="128.47" y1="151.71" x2="128.47" y2="135.15"/><path class="cls-2" d="M196.41,115.82a6.8,6.8,0,1,1,6.8,6.8A6.79,6.79,0,0,1,196.41,115.82Z"/><line class="cls-2" x1="142.06" y1="243.95" x2="142.06" y2="260.5"/><path class="cls-2" d="M169.24,252.23a6.8,6.8,0,1,1-6.79-6.8A6.79,6.79,0,0,1,169.24,252.23Z"/><line class="cls-2" x1="182.83" y1="243.95" x2="182.83" y2="260.5"/><path class="cls-2" d="M210,252.23a6.8,6.8,0,1,1-6.79-6.8A6.79,6.79,0,0,1,210,252.23Z"/><line class="cls-2" x1="168.81" y1="270.48" x2="168.81" y2="287.04"/><path class="cls-2" d="M196,278.76a6.8,6.8,0,1,1-6.8-6.79A6.79,6.79,0,0,1,196,278.76Z"/><line class="cls-2" x1="209.57" y1="270.48" x2="209.57" y2="287.04"/><path class="cls-2" d="M236.75,278.76A6.8,6.8,0,1,1,230,272,6.79,6.79,0,0,1,236.75,278.76Z"/><line class="cls-2" x1="114.46" y1="243.95" x2="114.46" y2="260.5"/><line class="cls-2" x1="128.05" y1="243.95" x2="128.05" y2="260.5"/><path class="cls-2" d="M100.88,252.23a6.8,6.8,0,1,1-6.8-6.8A6.79,6.79,0,0,1,100.88,252.23Z"/></g></g></svg>